HIERARCHY
ROOT Hips
{
	OFFSET -21.947001 39.810204 44.525997
	CHANNELS 6 Xposition Yposition Zposition Zrotation Xrotation Yrotation
	JOINT Chest
	{
		OFFSET -0.201599 0.334099 6.453201
		CHANNELS 6 Xposition Yposition Zposition Zrotation Xrotation Yrotation
		JOINT Chest2
		{
			OFFSET 0.000000 0.000000 3.568001
			CHANNELS 6 Xposition Yposition Zposition Zrotation Xrotation Yrotation
			JOINT Neck
			{
				OFFSET 0.000000 0.000000 8.296402
				CHANNELS 6 Xposition Yposition Zposition Zrotation Xrotation Yrotation
				JOINT Head
				{
					OFFSET 0.000000 0.000000 2.173901
					CHANNELS 6 Xposition Yposition Zposition Zrotation Xrotation Yrotation
					End Site
					{
						OFFSET 0.000000 0.000000 7.891998
					}
				}
			}
			JOINT LeftCollar
			{
				OFFSET 1.927601 0.221401 6.049000
				CHANNELS 6 Xposition Yposition Zposition Zrotation Xrotation Yrotation
				JOINT LeftShoulder
				{
					OFFSET 4.959700 0.000000 0.000000
					CHANNELS 6 Xposition Yposition Zposition Zrotation Xrotation Yrotation
					JOINT LeftElbow
					{
						OFFSET 0.000000 0.000000 -8.654202
						CHANNELS 6 Xposition Yposition Zposition Zrotation Xrotation Yrotation
						JOINT LeftWrist
						{
							OFFSET 0.000000 0.000000 -13.864101
							CHANNELS 6 Xposition Yposition Zposition Zrotation Xrotation Yrotation
							End Site
							{
								OFFSET 0.000000 0.000000 -2.173901
							}
						}
					}
				}
			}
			JOINT RightCollar
			{
				OFFSET -3.155701 -0.764999 6.687801
				CHANNELS 6 Xposition Yposition Zposition Zrotation Xrotation Yrotation
				JOINT RightShoulder
				{
					OFFSET -3.592899 0.000000 0.000000
					CHANNELS 6 Xposition Yposition Zposition Zrotation Xrotation Yrotation
					JOINT RightElbow
					{
						OFFSET 0.000000 0.000000 -10.352398
						CHANNELS 6 Xposition Yposition Zposition Zrotation Xrotation Yrotation
						JOINT RightWrist
						{
							OFFSET 0.000000 0.000000 -12.750301
							CHANNELS 6 Xposition Yposition Zposition Zrotation Xrotation Yrotation
							End Site
							{
								OFFSET 0.000000 0.000000 -2.173901
							}
						}
					}
				}
			}
		}
	}
	JOINT LeftHip
	{
		OFFSET 2.460600 -0.518101 -2.735500
		CHANNELS 6 Xposition Yposition Zposition Zrotation Xrotation Yrotation
		JOINT LeftKnee
		{
			OFFSET 0.000000 -0.000004 -17.005899
			CHANNELS 6 Xposition Yposition Zposition Zrotation Xrotation Yrotation
			JOINT LeftAnkle
			{
				OFFSET 0.000000 0.000000 -19.194401
				CHANNELS 6 Xposition Yposition Zposition Zrotation Xrotation Yrotation
				End Site
				{
					OFFSET 0.000000 -8.134600 0.000000
				}
			}
		}
	}
	JOINT RightHip
	{
		OFFSET -3.115499 -0.679600 -2.320301
		CHANNELS 6 Xposition Yposition Zposition Zrotation Xrotation Yrotation
		JOINT RightKnee
		{
			OFFSET 0.000000 -0.000004 -17.680401
			CHANNELS 6 Xposition Yposition Zposition Zrotation Xrotation Yrotation
			JOINT RightAnkle
			{
				OFFSET 0.000000 0.000000 -16.993797
				CHANNELS 6 Xposition Yposition Zposition Zrotation Xrotation Yrotation
				End Site
				{
					OFFSET 0.000000 -8.842300 0.000000
				}
			}
		}
	}
}
MOTION
Frames: 4
Frame Time: 0.041667
3.089804 23.939005 43.575493 2468.674723 -10.205045 -2.374973 -0.201600 0.334103 6.453196 -5.763309 17.120188 -0.566105 0.000001 0.000004 3.567997 0.719685 -2.731645 -0.472165 -0.000002 0.000010 8.296406 194.617307 -198.594170 188.691216 -0.000001 -0.000002 2.173896 3.714685 4.288699 8.952700 1.927602 0.221405 6.049003 -22.881718 2.633783 -0.852261 4.959702 0.000000 0.000007 157.280692 183.060517 148.620805 0.000001 0.000003 -8.654190 -41.955335 -9.492800 4.865305 0.000002 0.000004 -13.864104 4151.292808 -24.589743 2.916238 -3.155702 -0.765004 6.687808 26.178230 -6.647793 -3.623505 -3.592903 -0.000001 0.000003 -165.497205 198.607271 223.881757 0.000006 0.000000 -10.352399 -405.091252 -13.195515 -359.412586 -0.000006 -0.000009 -12.750299 -103.677094 187.271260 -173.128193 2.460600 -0.518094 -2.735507 -355.588063 -1.062195 3.484030 -0.000006 0.000002 -17.005903 158.534483 159.379008 -159.054178 -0.000002 -0.000004 -19.194397 225.101329 164.301020 193.277975 -3.115498 -0.679602 -2.320299 -373.847754 -14.568303 9.185562 -0.000003 0.000002 -17.680397 -795.200457 162.423060 -247.856445 0.000006 -0.000008 -16.993790 1375.551031 31.870960 -416.922943
2.739403 23.920404 43.495892 2470.827161 -9.854915 -2.924608 -0.201598 0.334099 6.453200 -5.231929 16.735471 0.014636 0.000004 0.000004 3.567992 0.422683 -2.885443 -0.507866 -0.000003 0.000004 8.296389 195.732335 -198.062222 188.327276 0.000001 0.000001 2.173917 3.867495 4.089345 8.991881 1.927598 0.221403 6.048997 -22.900146 2.973191 -0.535387 4.959702 -0.000002 -0.000001 156.639433 183.571074 147.884715 0.000000 0.000001 -8.654199 -40.777274 -9.560621 4.967967 -0.000003 0.000007 -13.864107 4152.846813 -24.992210 7.188811 -3.155704 -0.765000 6.687797 26.218692 -6.464634 -4.015231 -3.592901 -0.000004 0.000003 -166.354489 199.230649 224.337072 -0.000008 0.000000 -10.352403 -402.523101 -17.059919 -358.368688 0.000001 -0.000009 -12.750304 -105.254226 186.317889 -171.407204 2.460600 -0.518100 -2.735496 -356.426865 -1.350198 3.837273 -0.000005 -0.000004 -17.005905 155.649643 159.571346 -157.919615 -0.000002 -0.000000 -19.194405 226.053266 164.706966 194.917808 -3.115495 -0.679601 -2.320303 -375.554236 -17.311369 9.212680 -0.000002 -0.000004 -17.680395 -792.375273 162.787983 -248.934195 0.000002 -0.000003 -16.993792 1373.651910 30.359112 -415.814649
2.392508 23.892204 43.413895 2472.596235 -10.032677 -3.530371 -0.201602 0.334102 6.453197 -4.868342 17.065781 0.801926 -0.000001 0.000005 3.567994 0.320826 -3.019958 -0.531445 -0.000008 -0.000003 8.296399 196.849153 -197.433967 188.057688 -0.000002 0.000003 2.173902 4.002949 4.080600 8.967864 1.927599 0.221405 6.049008 -22.687944 2.885422 -0.736275 4.959700 0.000000 0.000006 156.165145 184.041291 147.769517 -0.000001 -0.000000 -8.654196 -38.871491 -9.350439 5.160475 0.000000 -0.000004 -13.864100 4151.960746 -24.991929 10.917962 -3.155711 -0.765000 6.687805 26.162164 -6.613262 -4.008569 -3.592905 -0.000003 0.000000 -166.772456 199.555506 224.458663 -0.000001 0.000002 -10.352397 -400.462023 -20.741736 -357.318505 0.000003 -0.000010 -12.750305 -102.147009 184.200366 -168.554944 2.460597 -0.518096 -2.735503 -356.961887 -1.098970 4.158614 -0.000005 0.000001 -17.005901 153.355396 159.708852 -156.968607 -0.000007 0.000000 -19.194401 226.543031 165.057600 196.319499 -3.115499 -0.679593 -2.320303 -376.827656 -19.389941 9.277100 -0.000005 0.000001 -17.680399 -790.048091 162.350687 -249.126779 0.000003 0.000004 -16.993795 1372.088617 29.348462 -414.483746
2.039108 23.851103 43.337296 2474.463445 -10.248869 -3.914281 -0.201599 0.334095 6.453201 -4.599059 17.449356 1.237630 -0.000001 0.000007 3.567999 0.331354 -3.207827 -0.412690 -0.000001 0.000000 8.296403 197.606293 -196.950882 187.927778 -0.000003 0.000006 2.173905 4.100278 4.042392 8.866805 1.927603 0.221405 6.049002 -22.535342 2.709051 -0.779601 4.959706 0.000001 0.000006 155.585699 184.249571 147.672528 -0.000006 -0.000001 -8.654201 -36.991290 -9.065965 5.237841 0.000000 0.000003 -13.864100 4150.495042 -24.826331 15.471985 -3.155703 -0.765003 6.687804 26.023904 -6.633761 -3.657864 -3.592903 -0.000001 0.000000 -167.658386 200.125253 224.209538 0.000005 0.000001 -10.352404 -398.776360 -24.447813 -356.546666 -0.000000 -0.000010 -12.750296 -103.271258 182.768404 -166.003090 2.460597 -0.518101 -2.735497 -357.567561 -0.816419 4.296679 -0.000002 -0.000001 -17.005905 151.096051 159.868104 -156.031942 -0.000005 0.000000 -19.194397 227.626996 164.960161 195.466668 -3.115496 -0.679604 -2.320296 -378.333850 -21.224326 8.957524 -0.000003 -0.000002 -17.680389 -787.894013 161.247584 -248.484358 0.000004 -0.000002 -16.993793 1370.702143 29.103733 -411.866937
